<svg xmlns="http://www.w3.org/2000/svg" version="1.1" viewBox="108.21 173.34 283.8 152.31">
<g stroke-width="2.00" fill="none" stroke-linecap="butt">
<path stroke="#6a398d" vector-effect="non-scaling-stroke" d="   M 216.59 174.34   L 214.17 198.21   Q 214.13 198.62 213.84 198.92   L 213.55 199.22"/>
<path stroke="#988b9c" vector-effect="non-scaling-stroke" d="   M 213.55 199.22   C 174.81 209.70 169.07 272.38 202.83 291.55   Q 203.30 291.82 203.04 292.29   L 188.92 317.86   A 0.23 0.23 0.0 0 0 189.23 318.18   Q 193.74 315.89 198.14 312.90   Q 202.46 309.96 214.61 303.27   C 218.88 300.92 224.51 296.04 229.36 295.60   C 243.35 294.34 256.52 288.58 263.61 275.81   C 275.46 254.49 270.89 222.60 251.14 207.27   Q 239.40 198.16 223.18 197.51"/>
<path stroke="#6a398d" vector-effect="non-scaling-stroke" d="   M 223.18 197.51   L 218.76 174.75"/>
<path stroke="#988b9c" vector-effect="non-scaling-stroke" d="   M 213.61 213.19   Q 201.98 219.06 197.84 231.30   Q 194.87 240.08 194.51 242.50   Q 192.47 256.24 197.95 267.55   C 204.13 280.31 217.14 284.20 230.26 282.38   Q 238.83 281.19 244.74 276.62   C 256.37 267.61 259.19 252.72 254.99 238.76   C 250.59 224.11 240.31 211.93 224.68 211.51"/>
<path stroke="#d1adf0" vector-effect="non-scaling-stroke" d="   M 223.18 197.51   Q 223.08 204.72 224.68 211.51"/>
<path stroke="#6a398d" vector-effect="non-scaling-stroke" d="   M 224.68 211.51   Q 224.34 213.73 225.06 215.70   A 0.87 0.86 83.6 0 0 225.75 216.26   C 230.64 216.93 236.09 218.33 239.62 222.13   Q 250.92 234.32 251.53 250.76   C 252.73 283.29 203.56 289.15 198.94 254.50   C 197.44 243.31 202.28 225.17 213.41 218.66   A 1.00 0.98 73.9 0 0 213.90 217.75   L 213.77 215.28   A 0.40 0.34 -40.3 0 1 213.79 215.16   Q 214.33 213.41 213.61 213.19"/>
<path stroke="#d1adf0" vector-effect="non-scaling-stroke" d="   M 213.61 213.19   C 214.02 208.77 213.90 204.41 213.98 199.99   Q 214.00 199.06 213.55 199.22"/>
<path stroke="#988b9c" vector-effect="non-scaling-stroke" d="   M 137.39 292.69   A 0.35 0.35 0.0 0 0 137.74 292.34   L 137.76 258.05   A 0.35 0.35 0.0 0 1 138.37 257.82   L 168.48 292.67   A 0.35 0.35 0.0 0 0 168.74 292.79   L 185.72 292.86   A 0.35 0.35 0.0 0 0 185.98 292.28   L 145.82 246.10   A 0.35 0.35 0.0 0 1 145.83 245.64   L 179.03 208.40   A 0.35 0.35 0.0 0 0 178.77 207.82   L 162.02 207.77   A 0.35 0.35 0.0 0 0 161.75 207.89   L 138.14 235.27   A 0.35 0.35 0.0 0 1 137.53 235.04   L 137.50 193.09   A 0.35 0.35 0.0 0 0 137.15 192.74   L 123.76 192.73   A 0.35 0.35 0.0 0 0 123.41 193.08   L 123.27 292.18   A 0.35 0.35 0.0 0 0 123.62 292.53   L 137.39 292.69"/>
<path stroke="#988b9c" vector-effect="non-scaling-stroke" d="   M 322.36 286.74   L 322.29 291.38   Q 322.26 292.64 323.53 292.63   L 335.73 292.54   A 1.02 1.02 0.0 0 0 336.74 291.52   L 336.75 193.00   A 0.25 0.25 0.0 0 0 336.50 192.75   L 322.94 192.67   A 0.64 0.64 0.0 0 0 322.30 193.31   L 322.25 227.49   A 0.39 0.38 20.0 0 1 321.62 227.78   C 312.07 219.90 297.20 218.68 287.32 226.71   Q 282.29 230.81 278.93 238.52   C 272.61 253.06 273.23 270.16 282.15 283.61   C 288.51 293.21 300.68 297.20 311.40 293.23   C 315.11 291.85 318.55 289.11 321.73 286.43   A 0.39 0.38 71.0 0 1 322.36 286.74"/>
<path stroke="#988b9c" vector-effect="non-scaling-stroke" d="   M 362.3029 216.8168   A 9.61 7.98 87.0 0 0 369.7691 206.8024   A 9.61 7.98 87.0 0 0 361.2971 197.6232   A 9.61 7.98 87.0 0 0 353.8309 207.6376   A 9.61 7.98 87.0 0 0 362.3029 216.8168"/>
<path stroke="#988b9c" vector-effect="non-scaling-stroke" d="   M 368.70 224.43   A 0.49 0.49 0.0 0 0 368.21 223.94   L 355.29 223.94   A 0.49 0.49 0.0 0 0 354.80 224.43   L 354.80 292.01   A 0.49 0.49 0.0 0 0 355.29 292.50   L 368.21 292.50   A 0.49 0.49 0.0 0 0 368.70 292.01   L 368.70 224.43"/>
<path stroke="#988b9c" vector-effect="non-scaling-stroke" d="   M 291.40 271.39   C 297.38 286.19 310.97 283.25 321.64 275.96   A 1.48 1.47 -17.2 0 0 322.29 274.74   L 322.27 241.52   A 1.64 1.64 0.0 0 0 321.56 240.17   C 313.77 234.90 305.83 231.00 297.11 237.56   C 287.52 244.79 287.38 261.45 291.40 271.39"/>
</g>
<path fill="#301639" d="   M 216.59 174.34   L 214.17 198.21   Q 214.13 198.62 213.84 198.92   L 213.55 199.22   C 174.81 209.70 169.07 272.38 202.83 291.55   Q 203.30 291.82 203.04 292.29   L 188.92 317.86   A 0.23 0.23 0.0 0 0 189.23 318.18   Q 193.74 315.89 198.14 312.90   Q 202.46 309.96 214.61 303.27   C 218.88 300.92 224.51 296.04 229.36 295.60   C 243.35 294.34 256.52 288.58 263.61 275.81   C 275.46 254.49 270.89 222.60 251.14 207.27   Q 239.40 198.16 223.18 197.51   L 218.76 174.75   L 369.33 174.49   A 0.80 0.77 66.1 0 1 369.87 174.71   L 391.60 196.26   Q 391.92 196.57 391.92 197.02   L 392.01 324.45   Q 392.01 325.65 390.80 325.65   L 130.22 325.52   Q 129.65 325.52 129.24 325.11   L 108.68 304.73   Q 108.21 304.27 108.21 303.61   L 108.47 175.55   Q 108.47 175.05 108.97 175.02   C 123.48 174.29 137.77 174.24 152.25 174.42   Q 184.32 174.81 216.59 174.34   Z   M 137.39 292.69   A 0.35 0.35 0.0 0 0 137.74 292.34   L 137.76 258.05   A 0.35 0.35 0.0 0 1 138.37 257.82   L 168.48 292.67   A 0.35 0.35 0.0 0 0 168.74 292.79   L 185.72 292.86   A 0.35 0.35 0.0 0 0 185.98 292.28   L 145.82 246.10   A 0.35 0.35 0.0 0 1 145.83 245.64   L 179.03 208.40   A 0.35 0.35 0.0 0 0 178.77 207.82   L 162.02 207.77   A 0.35 0.35 0.0 0 0 161.75 207.89   L 138.14 235.27   A 0.35 0.35 0.0 0 1 137.53 235.04   L 137.50 193.09   A 0.35 0.35 0.0 0 0 137.15 192.74   L 123.76 192.73   A 0.35 0.35 0.0 0 0 123.41 193.08   L 123.27 292.18   A 0.35 0.35 0.0 0 0 123.62 292.53   L 137.39 292.69   Z   M 322.36 286.74   L 322.29 291.38   Q 322.26 292.64 323.53 292.63   L 335.73 292.54   A 1.02 1.02 0.0 0 0 336.74 291.52   L 336.75 193.00   A 0.25 0.25 0.0 0 0 336.50 192.75   L 322.94 192.67   A 0.64 0.64 0.0 0 0 322.30 193.31   L 322.25 227.49   A 0.39 0.38 20.0 0 1 321.62 227.78   C 312.07 219.90 297.20 218.68 287.32 226.71   Q 282.29 230.81 278.93 238.52   C 272.61 253.06 273.23 270.16 282.15 283.61   C 288.51 293.21 300.68 297.20 311.40 293.23   C 315.11 291.85 318.55 289.11 321.73 286.43   A 0.39 0.38 71.0 0 1 322.36 286.74   Z   M 362.3029 216.8168   A 9.61 7.98 87.0 0 0 369.7691 206.8024   A 9.61 7.98 87.0 0 0 361.2971 197.6232   A 9.61 7.98 87.0 0 0 353.8309 207.6376   A 9.61 7.98 87.0 0 0 362.3029 216.8168   Z   M 368.70 224.43   A 0.49 0.49 0.0 0 0 368.21 223.94   L 355.29 223.94   A 0.49 0.49 0.0 0 0 354.80 224.43   L 354.80 292.01   A 0.49 0.49 0.0 0 0 355.29 292.50   L 368.21 292.50   A 0.49 0.49 0.0 0 0 368.70 292.01   L 368.70 224.43   Z"/>
<path fill="#a35be1" d="   M 216.59 174.34   Q 217.55 174.73 218.76 174.75   L 223.18 197.51   Q 223.08 204.72 224.68 211.51   Q 224.34 213.73 225.06 215.70   A 0.87 0.86 83.6 0 0 225.75 216.26   C 230.64 216.93 236.09 218.33 239.62 222.13   Q 250.92 234.32 251.53 250.76   C 252.73 283.29 203.56 289.15 198.94 254.50   C 197.44 243.31 202.28 225.17 213.41 218.66   A 1.00 0.98 73.9 0 0 213.90 217.75   L 213.77 215.28   A 0.40 0.34 -40.3 0 1 213.79 215.16   Q 214.33 213.41 213.61 213.19   C 214.02 208.77 213.90 204.41 213.98 199.99   Q 214.00 199.06 213.55 199.22   L 213.84 198.92   Q 214.13 198.62 214.17 198.21   L 216.59 174.34   Z"/>
<path fill="#ffffff" d="   M 137.39 292.69   L 123.62 292.53   A 0.35 0.35 0.0 0 1 123.27 292.18   L 123.41 193.08   A 0.35 0.35 0.0 0 1 123.76 192.73   L 137.15 192.74   A 0.35 0.35 0.0 0 1 137.50 193.09   L 137.53 235.04   A 0.35 0.35 0.0 0 0 138.14 235.27   L 161.75 207.89   A 0.35 0.35 0.0 0 1 162.02 207.77   L 178.77 207.82   A 0.35 0.35 0.0 0 1 179.03 208.40   L 145.83 245.64   A 0.35 0.35 0.0 0 0 145.82 246.10   L 185.98 292.28   A 0.35 0.35 0.0 0 1 185.72 292.86   L 168.74 292.79   A 0.35 0.35 0.0 0 1 168.48 292.67   L 138.37 257.82   A 0.35 0.35 0.0 0 0 137.76 258.05   L 137.74 292.34   A 0.35 0.35 0.0 0 1 137.39 292.69   Z"/>
<path fill="#ffffff" d="   M 321.73 286.43   C 318.55 289.11 315.11 291.85 311.40 293.23   C 300.68 297.20 288.51 293.21 282.15 283.61   C 273.23 270.16 272.61 253.06 278.93 238.52   Q 282.29 230.81 287.32 226.71   C 297.20 218.68 312.07 219.90 321.62 227.78   A 0.39 0.38 20.0 0 0 322.25 227.49   L 322.30 193.31   A 0.64 0.64 0.0 0 1 322.94 192.67   L 336.50 192.75   A 0.25 0.25 0.0 0 1 336.75 193.00   L 336.74 291.52   A 1.02 1.02 0.0 0 1 335.73 292.54   L 323.53 292.63   Q 322.26 292.64 322.29 291.38   L 322.36 286.74   A 0.39 0.38 71.0 0 0 321.73 286.43   Z   M 291.40 271.39   C 297.38 286.19 310.97 283.25 321.64 275.96   A 1.48 1.47 -17.2 0 0 322.29 274.74   L 322.27 241.52   A 1.64 1.64 0.0 0 0 321.56 240.17   C 313.77 234.90 305.83 231.00 297.11 237.56   C 287.52 244.79 287.38 261.45 291.40 271.39   Z"/>
<path fill="#ffffff" d="   M 223.18 197.51   Q 239.40 198.16 251.14 207.27   C 270.89 222.60 275.46 254.49 263.61 275.81   C 256.52 288.58 243.35 294.34 229.36 295.60   C 224.51 296.04 218.88 300.92 214.61 303.27   Q 202.46 309.96 198.14 312.90   Q 193.74 315.89 189.23 318.18   A 0.23 0.23 0.0 0 1 188.92 317.86   L 203.04 292.29   Q 203.30 291.82 202.83 291.55   C 169.07 272.38 174.81 209.70 213.55 199.22   Q 214.00 199.06 213.98 199.99   C 213.90 204.41 214.02 208.77 213.61 213.19   Q 201.98 219.06 197.84 231.30   Q 194.87 240.08 194.51 242.50   Q 192.47 256.24 197.95 267.55   C 204.13 280.31 217.14 284.20 230.26 282.38   Q 238.83 281.19 244.74 276.62   C 256.37 267.61 259.19 252.72 254.99 238.76   C 250.59 224.11 240.31 211.93 224.68 211.51   Q 223.08 204.72 223.18 197.51   Z"/>
<ellipse fill="#ffffff" cx="0.00" cy="0.00" transform="translate(361.80,207.22) rotate(87.0)" rx="9.61" ry="7.98"/>
<path fill="#301639" d="   M 224.68 211.51   C 240.31 211.93 250.59 224.11 254.99 238.76   C 259.19 252.72 256.37 267.61 244.74 276.62   Q 238.83 281.19 230.26 282.38   C 217.14 284.20 204.13 280.31 197.95 267.55   Q 192.47 256.24 194.51 242.50   Q 194.87 240.08 197.84 231.30   Q 201.98 219.06 213.61 213.19   Q 214.33 213.41 213.79 215.16   A 0.40 0.34 -40.3 0 0 213.77 215.28   L 213.90 217.75   A 1.00 0.98 73.9 0 1 213.41 218.66   C 202.28 225.17 197.44 243.31 198.94 254.50   C 203.56 289.15 252.73 283.29 251.53 250.76   Q 250.92 234.32 239.62 222.13   C 236.09 218.33 230.64 216.93 225.75 216.26   A 0.87 0.86 83.6 0 1 225.06 215.70   Q 224.34 213.73 224.68 211.51   Z"/>
<rect fill="#ffffff" x="354.80" y="223.94" width="13.90" height="68.56" rx="0.49"/>
<path fill="#301639" d="   M 321.64 275.96   C 310.97 283.25 297.38 286.19 291.40 271.39   C 287.38 261.45 287.52 244.79 297.11 237.56   C 305.83 231.00 313.77 234.90 321.56 240.17   A 1.64 1.64 0.0 0 1 322.27 241.52   L 322.29 274.74   A 1.48 1.47 -17.2 0 1 321.64 275.96   Z"/>
</svg>